<svg width="12" height="10" viewBox="0 0 12 10" fill="none" xmlns="http://www.w3.org/2000/svg">
<path d="M1.14801 9.49119C1.2234 9.49116 1.29804 9.47429 1.36766 9.44156C1.43728 9.40882 1.5005 9.36085 1.55368 9.30042L4.77937 5.64395L6.09675 7.12931C6.1501 7.18946 6.21342 7.23715 6.28308 7.26963C6.35275 7.30211 6.4274 7.31876 6.50277 7.31862C6.57815 7.31848 6.65277 7.30156 6.72237 7.26883C6.79198 7.23609 6.85521 7.18818 6.90844 7.12783L10.5161 3.03837L10.5173 4.4996C10.5175 4.67168 10.5781 4.83661 10.6858 4.9581C10.7936 5.07958 10.9396 5.14768 11.0919 5.1474C11.2441 5.14712 11.39 5.0785 11.4975 4.95662C11.605 4.83474 11.6653 4.66959 11.6652 4.49751L11.6628 1.46955C11.6626 1.29747 11.602 1.13254 11.4942 1.01105C11.3865 0.889568 11.2404 0.821474 11.0882 0.821752L8.40982 0.826637C8.2576 0.826914 8.11168 0.895541 8.00416 1.01742C7.89664 1.1393 7.83633 1.30445 7.83649 1.47653C7.83665 1.64862 7.89727 1.81354 8.00502 1.93503C8.11277 2.05651 8.25882 2.12461 8.41104 2.12433L9.70382 2.12197L6.5013 5.75215L5.18393 4.26679C5.13057 4.20664 5.06726 4.15895 4.99759 4.12647C4.92792 4.09399 4.85327 4.07734 4.7779 4.07748C4.70252 4.07762 4.62791 4.09454 4.5583 4.12727C4.48869 4.16001 4.42547 4.20792 4.37223 4.26827L0.74112 8.38427C0.660933 8.47516 0.606376 8.59087 0.584347 8.71678C0.562318 8.84269 0.573806 8.97313 0.61736 9.09162C0.660913 9.2101 0.734575 9.31131 0.82903 9.38243C0.923485 9.45355 1.03449 9.4914 1.14801 9.49119Z" fill="#1DB448"/>
</svg>
