<svg width="11" height="11" viewBox="0 0 11 11" fill="none" xmlns="http://www.w3.org/2000/svg">
      <path
         d="M0.0186904 0.974638C0.0312284 1.04897 0.0602506 1.11979 0.104088 1.18301C0.147926 1.24623 0.205716 1.30061 0.274138 1.34302L4.41521 3.91719L3.16908 5.46279C3.11861 5.52539 3.0821 5.59574 3.06163 5.66983C3.04116 5.74392 3.03713 5.8203 3.04977 5.89461C3.06241 5.96891 3.09148 6.03969 3.13532 6.1029C3.17915 6.16611 3.23689 6.22051 3.30524 6.26299L7.9367 9.14201L6.49592 9.38564C6.32625 9.41436 6.17367 9.50152 6.07175 9.62793C5.96983 9.75435 5.92692 9.90967 5.95245 10.0597C5.97799 10.2098 6.06988 10.3423 6.20791 10.4281C6.34594 10.5139 6.51881 10.546 6.68848 10.5173L9.67405 10.0124C9.84372 9.98367 9.9963 9.89652 10.0982 9.7701C10.2001 9.64368 10.2431 9.48836 10.2175 9.3383L9.76822 6.69785C9.74268 6.54779 9.65079 6.41528 9.51276 6.32948C9.37473 6.24367 9.20186 6.2116 9.03219 6.24032C8.86251 6.26904 8.70994 6.35619 8.60802 6.48261C8.5061 6.60902 8.46318 6.76435 8.48872 6.91441L8.70558 8.18887L4.59428 5.6332L5.84042 4.08759C5.89088 4.02499 5.9274 3.95464 5.94787 3.88055C5.96834 3.80646 5.97237 3.73008 5.95972 3.65578C5.94708 3.58147 5.91801 3.51069 5.87418 3.44749C5.83034 3.38428 5.7726 3.32988 5.70425 3.28739L1.04274 0.389694C0.939804 0.325703 0.816639 0.291105 0.688821 0.290276C0.561004 0.289447 0.434276 0.322424 0.324661 0.385036C0.215047 0.447649 0.127471 0.537084 0.0730086 0.642033C0.0185456 0.746982 -0.000357033 0.862729 0.0186904 0.974638Z"
         fill="#FF4747"
      />
   </svg>