<svg width="13" height="12" viewBox="0 0 13 12" fill="none" xmlns="http://www.w3.org/2000/svg">
<path fill-rule="evenodd" clip-rule="evenodd" d="M0.171631 4.74389L3.97985 0.965027H9.05012L12.8583 4.74389L6.51497 11.0383L0.171631 4.74389ZM3.80263 3.41905C5.30061 1.92302 7.72936 1.92302 9.22733 3.41905L10.5213 4.71131L9.22733 6.00356C7.72936 7.49959 5.30061 7.49959 3.80263 6.00356L2.50867 4.71131L3.80263 3.41905ZM4.92913 4.75291C4.92913 5.60354 5.63915 6.29307 6.51497 6.29307C7.39082 6.29307 8.1008 5.60354 8.1008 4.75291C8.1008 3.90231 7.39082 3.21279 6.51497 3.21279C5.63915 3.21279 4.92913 3.90231 4.92913 4.75291ZM5.84725 4.71131C5.84725 5.07926 6.14638 5.37731 6.51497 5.37731C6.88359 5.37731 7.18272 5.07926 7.18272 4.71131C7.18272 4.34331 6.88359 4.04531 6.51497 4.04531C6.14638 4.04531 5.84725 4.34331 5.84725 4.71131Z" fill="#DBE1E5"/>
</svg>
