<svg width="10" height="14" viewBox="0 0 10 14" fill="none" xmlns="http://www.w3.org/2000/svg">
      <path
         d="M2.9788 3.49953H7.02131L8.01443 1.50891C8.06033 1.41686 8.07233 1.3116 8.04832 1.21159C8.02432 1.11158 7.96585 1.02322 7.88318 0.962032C7.80018 0.900142 7.69792 0.869694 7.59458 0.876102C7.49124 0.882511 7.39353 0.92536 7.31881 0.997032C7.03254 1.22029 6.67503 1.33221 6.31256 1.31203C5.95215 1.33198 5.59658 1.22174 5.31068 1.00141C5.22871 0.919922 5.11782 0.874185 5.00224 0.874185C4.88666 0.874185 4.77577 0.919922 4.6938 1.00141C4.40692 1.22311 4.04948 1.33345 3.68755 1.31203C3.32715 1.33198 2.97158 1.22174 2.68567 1.00141C2.61215 0.927312 2.51455 0.881948 2.41051 0.873504C2.30647 0.865061 2.20284 0.894096 2.11832 0.955366C2.03381 1.01664 1.97399 1.1061 1.94967 1.20761C1.92534 1.30912 1.93811 1.41599 1.98567 1.50891L2.9788 3.49953Z"
         fill="#0FD5C8"
      />
      <path
         d="M7.2925 4.37451H2.7075C1.77125 5.50764 0.1875 7.75639 0.1875 10.062C0.1875 12.0614 1.71 13.1245 2.8125 13.1245H7.1875C8.29 13.1245 9.8125 12.0614 9.8125 10.062C9.8125 7.75639 8.22875 5.50764 7.2925 4.37451ZM5.4375 10.4995V10.937C5.4375 11.053 5.39141 11.1643 5.30936 11.2464C5.22731 11.3284 5.11603 11.3745 5 11.3745C4.88397 11.3745 4.77269 11.3284 4.69064 11.2464C4.60859 11.1643 4.5625 11.053 4.5625 10.937V10.4995C4.33271 10.4989 4.1071 10.438 3.90825 10.3228C3.7094 10.2076 3.54427 10.0423 3.42937 9.84326C3.39337 9.79375 3.36816 9.73724 3.35536 9.67738C3.34257 9.61751 3.34248 9.55563 3.3551 9.49573C3.36773 9.43583 3.39278 9.37924 3.42864 9.32963C3.46451 9.28002 3.51038 9.23849 3.5633 9.20772C3.61623 9.17695 3.67502 9.15763 3.73587 9.15101C3.79673 9.14439 3.8583 9.15061 3.9166 9.16927C3.9749 9.18794 4.02864 9.21863 4.07433 9.25937C4.12003 9.30011 4.15666 9.34998 4.18187 9.40576C4.22042 9.47253 4.27592 9.52792 4.34276 9.56633C4.4096 9.60475 4.48541 9.62482 4.5625 9.62451H5.4375C5.55353 9.62451 5.66481 9.57842 5.74686 9.49637C5.82891 9.41432 5.875 9.30304 5.875 9.18701C5.875 9.07098 5.82891 8.9597 5.74686 8.87765C5.66481 8.79561 5.55353 8.74951 5.4375 8.74951H4.5625C4.2144 8.74951 3.88056 8.61123 3.63442 8.36509C3.38828 8.11895 3.25 7.78511 3.25 7.43701C3.25 7.08892 3.38828 6.75508 3.63442 6.50893C3.88056 6.26279 4.2144 6.12451 4.5625 6.12451V5.68701C4.5625 5.57098 4.60859 5.4597 4.69064 5.37765C4.77269 5.29561 4.88397 5.24951 5 5.24951C5.11603 5.24951 5.22731 5.29561 5.30936 5.37765C5.39141 5.4597 5.4375 5.57098 5.4375 5.68701V6.12451C5.66729 6.12513 5.89289 6.18607 6.09175 6.30124C6.2906 6.4164 6.45573 6.58175 6.57063 6.78076C6.60663 6.83027 6.63184 6.88678 6.64464 6.94665C6.65743 7.00651 6.65752 7.0684 6.6449 7.1283C6.63228 7.1882 6.60722 7.24478 6.57136 7.29439C6.53549 7.344 6.48962 7.38554 6.4367 7.4163C6.38377 7.44707 6.32499 7.46639 6.26413 7.47302C6.20327 7.47964 6.1417 7.47342 6.0834 7.45475C6.0251 7.43608 5.97136 7.40539 5.92567 7.36465C5.87997 7.32392 5.84334 7.27405 5.81813 7.21826C5.77958 7.1515 5.72408 7.0961 5.65724 7.05769C5.5904 7.01928 5.51459 6.99921 5.4375 6.99951H4.5625C4.44647 6.99951 4.33519 7.04561 4.25314 7.12765C4.17109 7.2097 4.125 7.32098 4.125 7.43701C4.125 7.55304 4.17109 7.66432 4.25314 7.74637C4.33519 7.82842 4.44647 7.87451 4.5625 7.87451H5.4375C5.7856 7.87451 6.11944 8.01279 6.36558 8.25893C6.61172 8.50508 6.75 8.83892 6.75 9.18701C6.75 9.53511 6.61172 9.86895 6.36558 10.1151C6.11944 10.3612 5.7856 10.4995 5.4375 10.4995Z"
         fill="#0FD5C8"
      />
   </svg>