<svg width="20" height="19" viewBox="0 0 20 19" fill="none" xmlns="http://www.w3.org/2000/svg">
<g clip-path="url(#clip0_25_4044)">
<path d="M19.03 9.49056C19.03 14.7318 14.7697 18.9811 9.515 18.9811C4.26031 18.9811 0 14.7318 0 9.49056C0 4.24936 4.26031 0 9.515 0C14.7708 0 19.03 4.24936 19.03 9.49056Z" fill="#1B1F23"/>
<path d="M4.69426 9.80943L4.7353 9.74507L7.21054 5.88284C7.24672 5.8263 7.33176 5.83214 7.35912 5.89356C7.77265 6.81793 8.12946 7.96754 7.9623 8.68324C7.89094 8.97771 7.69542 9.37649 7.47546 9.74507C7.44712 9.79873 7.41583 9.85136 7.38259 9.90209C7.36694 9.92547 7.34055 9.9391 7.3122 9.9391H4.76659C4.69816 9.9391 4.65808 9.86499 4.69426 9.80943Z" fill="#DBE1E5"/>
<path d="M15.7274 10.5271V11.1385C15.7274 11.1736 15.7059 11.2048 15.6746 11.2185C15.483 11.3003 14.827 11.6007 14.5543 11.979C13.8582 12.9453 13.3265 14.327 12.1377 14.327H7.17847C5.4208 14.327 3.99646 12.9015 3.99646 11.1425V11.0859C3.99646 11.0391 4.03457 11.001 4.08151 11.001H6.84611C6.90084 11.001 6.94091 11.0518 6.93604 11.1054C6.91648 11.2848 6.94973 11.4681 7.03476 11.6348C7.19899 11.9674 7.5392 12.175 7.90676 12.175H9.27537V11.1092H7.9224C7.853 11.1092 7.81196 11.0293 7.85203 10.9727C7.86669 10.9503 7.88331 10.9269 7.9009 10.9006C8.02897 10.7193 8.21177 10.4375 8.3936 10.1167C8.51775 9.90023 8.63799 9.66909 8.73474 9.437C8.75438 9.39507 8.76995 9.35219 8.7856 9.31026C8.81199 9.23615 8.8394 9.16695 8.85895 9.09767C8.8785 9.03917 8.89407 8.97774 8.90973 8.9202C8.95575 8.72331 8.9753 8.51462 8.9753 8.29815C8.9753 8.21332 8.97132 8.12459 8.96353 8.03976C8.95964 7.94713 8.94788 7.85449 8.93611 7.76186C8.92833 7.67996 8.91371 7.59902 8.89805 7.5142C8.8785 7.39036 8.85108 7.26751 8.81986 7.14366L8.80904 7.09687C8.7856 7.01203 8.76605 6.93112 8.73872 6.84629C8.66147 6.58008 8.57251 6.32072 8.47865 6.07793C8.44444 5.9814 8.40533 5.88877 8.36622 5.79614C8.30856 5.6567 8.24989 5.52995 8.19613 5.41C8.16876 5.3554 8.1453 5.30567 8.12184 5.25496C8.09544 5.19743 8.06808 5.1399 8.04069 5.08531C8.02115 5.04338 7.99866 5.00438 7.98301 4.96537L7.81585 4.65725C7.79239 4.61533 7.8315 4.56559 7.87744 4.57827L8.92348 4.86104H8.92642L8.93032 4.86202L9.06811 4.90004L9.21966 4.94296L9.27537 4.95854V4.33841C9.27537 4.03906 9.51583 3.79626 9.81305 3.79626C9.96166 3.79626 10.0965 3.85672 10.1933 3.9552C10.2901 4.05369 10.3507 4.18825 10.3507 4.33841V5.25888L10.4621 5.29006C10.471 5.293 10.4798 5.29689 10.4876 5.30274C10.515 5.32323 10.554 5.35344 10.6039 5.39051C10.643 5.42169 10.6851 5.45973 10.7358 5.49874C10.8366 5.57966 10.9568 5.684 11.0888 5.80394C11.124 5.83415 11.1582 5.86536 11.1894 5.89657C11.3596 6.05452 11.5502 6.23978 11.7321 6.44455C11.7828 6.50208 11.8327 6.56058 11.8835 6.62201C11.9344 6.68441 11.9882 6.74584 12.0351 6.80728C12.0966 6.88918 12.1632 6.97401 12.2209 7.06275C12.2482 7.10467 12.2795 7.14757 12.3059 7.1895C12.3802 7.30163 12.4457 7.41767 12.5082 7.53371C12.5346 7.58733 12.562 7.64582 12.5855 7.70336C12.6548 7.85839 12.7096 8.01636 12.7448 8.17432C12.7555 8.20845 12.7634 8.2455 12.7673 8.27866V8.28646C12.779 8.33325 12.7829 8.38298 12.7868 8.43368C12.8025 8.59555 12.7946 8.75739 12.7595 8.9202C12.7448 8.98948 12.7252 9.05479 12.7018 9.12407C12.6784 9.19033 12.6548 9.25953 12.6246 9.32493C12.5659 9.46038 12.4965 9.59593 12.4144 9.72275C12.388 9.76952 12.3567 9.8193 12.3254 9.86606C12.2912 9.91576 12.256 9.96261 12.2248 10.0084C12.1817 10.0669 12.1357 10.1283 12.0889 10.183C12.0468 10.2405 12.0038 10.2981 11.9569 10.3487C11.8914 10.4257 11.8288 10.4989 11.7633 10.5691C11.7242 10.615 11.6821 10.6617 11.6392 10.7036C11.5971 10.7504 11.5541 10.7923 11.515 10.8313C11.4495 10.8967 11.3948 10.9474 11.3488 10.9893L11.2413 11.0878C11.2257 11.1015 11.2051 11.1092 11.1836 11.1092H10.3507V12.175H11.3987C11.6333 12.175 11.8562 12.0921 12.0361 11.94C12.0976 11.8864 12.3664 11.6543 12.6842 11.3043C12.695 11.2926 12.7086 11.2838 12.7243 11.2799L15.6188 10.4452C15.6726 10.4296 15.7274 10.4706 15.7274 10.5271Z" fill="#DBE1E6"/>
</g>
<defs>
<clipPath id="clip0_25_4044">
<rect width="19.03" height="18.9811" fill="white"/>
</clipPath>
</defs>
</svg>
