 <svg
    width="12"
    height="12"
    viewBox="0 0 12 12"
    fill="none"
    xmlns="http://www.w3.org/2000/svg"
  >
    <path
      d="M2.24232 7.03969L3.23701 8.03437C3.98044 8.77781 4.96932 9.1875 6.021 9.1875H6.94669C6.95344 9.11419 6.96319 9.04106 6.97763 8.96869L7.01907 8.76169C7.09988 8.3565 7.45857 8.0625 7.87182 8.0625C8.1735 8.0625 8.44932 8.21513 8.60944 8.47125L8.85263 8.8605C9.08607 9.23381 9.42563 9.51469 9.82613 9.67631C10.8508 8.71294 11.4375 7.36444 11.4375 5.95613C11.4375 4.81725 11.0501 3.69675 10.3464 2.80125L10.3144 2.76038C9.7785 2.07863 8.97394 1.6875 8.10675 1.6875H7.74132C7.71169 1.6875 7.6875 1.71169 7.6875 1.74131C7.6875 1.76006 7.69707 1.77694 7.71282 1.78687L8.13563 2.05106C8.79413 2.46281 9.1875 3.1725 9.1875 3.94931C9.1875 5.18344 8.18344 6.1875 6.94913 6.1875H4.79738L4.53619 5.92631C4.42051 5.81063 4.23413 5.78062 4.08694 5.85337L3.41926 6.1875H1.12501C0.849382 6.1875 0.620444 6.387 0.572632 6.64913C0.739507 6.59325 0.914819 6.5625 1.09032 6.5625C1.52551 6.5625 1.93463 6.73181 2.24232 7.03969ZM5.0625 7.125C5.37319 7.125 5.625 7.29281 5.625 7.5C5.625 7.70719 5.37319 7.875 5.0625 7.875C4.75182 7.875 4.5 7.70719 4.5 7.5C4.5 7.29281 4.75182 7.125 5.0625 7.125Z"
      fill="#4496F7"
    />
    <path
      d="M7.62487 2.17403L7.51387 2.10466C7.38768 2.02591 7.31249 1.88997 7.31249 1.74128C7.31249 1.50728 7.50131 1.31678 7.73456 1.31322C7.33612 0.895659 6.80193 0.630534 6.22424 0.574097C6.44418 0.900534 6.56249 1.28491 6.56249 1.68747C6.56249 2.08985 6.44418 2.47422 6.22424 2.80085C6.74606 2.74947 7.23881 2.52897 7.62487 2.17403Z"
      fill="#4496F7"
    />
    <path
      d="M10.3041 10.2L10.0536 10.1423C9.41925 9.99581 8.87981 9.61106 8.53444 9.05906L8.29125 8.66981C8.2005 8.5245 8.04356 8.4375 7.87181 8.4375C7.63669 8.4375 7.43269 8.60475 7.38656 8.83519L7.34512 9.04219C7.32356 9.15131 7.3125 9.26269 7.3125 9.37331C7.3125 10.3048 8.07019 11.0625 9.00169 11.0625H9.67781C10.2709 11.0625 10.8527 11.1579 11.4113 11.3466C11.3042 10.7858 10.8789 10.3328 10.3041 10.2Z"
      fill="#4496F7"
    />
    <path
      d="M5.66622 10.6875C4.50653 10.6875 3.38322 10.2718 2.5031 9.51731L2.74703 9.23269C3.55928 9.92906 4.59597 10.3125 5.66622 10.3125H7.16585C7.04828 10.0836 6.9716 9.83081 6.94703 9.5625H6.02097C4.86897 9.5625 3.78616 9.11381 2.97166 8.2995L1.97697 7.30481C1.74372 7.07137 1.42047 6.9375 1.09028 6.9375C0.912909 6.9375 0.735909 6.97763 0.574097 7.05075C0.729159 9.28875 2.59816 11.0625 4.87497 11.0625H6.3311C6.7676 11.0625 7.19772 11.0061 7.61491 10.8979C7.54253 10.8321 7.47354 10.7629 7.4111 10.6875H5.66622ZM1.31247 7.6875H0.937472V7.3125H1.31247V7.6875ZM2.06247 8.4375H1.68747V8.0625H2.06247V8.4375Z"
      fill="#4496F7"
    />
  </svg>